<?xml version="1.0" standalone="no"?>
<!DOCTYPE svg PUBLIC "-//W3C//DTD SVG 20010904//EN"
 "http://www.w3.org/TR/2001/REC-SVG-20010904/DTD/svg10.dtd">
<svg version="1.0" xmlns="http://www.w3.org/2000/svg"
 width="1280.000000pt" height="1280.000000pt" viewBox="0 0 1280.000000 1280.000000"
 preserveAspectRatio="xMidYMid meet">
<g transform="translate(0.000000,1280.000000) scale(0.100000,-0.100000)"
fill="#000000" stroke="none">
<path d="M5903 10960 c-673 -47 -1248 -292 -1705 -729 l-118 -113 -147 7
c-724 34 -1616 -280 -2295 -807 -606 -472 -1032 -1094 -1236 -1804 -102 -355
-142 -660 -142 -1080 0 -488 63 -889 207 -1309 322 -937 953 -1663 1828 -2098
366 -182 736 -291 1165 -344 223 -27 698 -25 920 5 314 42 565 106 824 209
817 323 1416 946 1761 1833 85 217 126 359 240 825 286 1173 386 1543 549
2030 184 549 304 805 532 1136 76 110 99 136 107 122 8 -12 26 -147 36 -273
36 -420 20 -1074 -49 -1960 -80 -1021 -91 -1782 -34 -2290 64 -581 205 -1031
425 -1357 288 -427 702 -729 1141 -833 359 -85 754 -19 1013 168 96 70 256
239 255 269 -1 9 -142 125 -159 131 -6 2 -48 -31 -92 -72 -243 -229 -400 -290
-653 -257 -372 50 -667 322 -846 781 -82 212 -149 484 -184 755 -26 202 -36
348 -42 635 l-6 275 77 165 c116 247 221 499 270 645 49 145 167 540 304 1012
356 1226 623 1871 1024 2473 279 418 498 638 685 685 89 23 117 12 227 -95
138 -133 227 -174 380 -173 149 0 261 71 330 208 28 56 30 67 30 175 0 108 -2
118 -29 168 -86 154 -281 244 -499 228 -129 -9 -237 -39 -373 -106 -260 -127
-527 -372 -797 -734 -493 -661 -805 -1380 -1256 -2886 -122 -408 -284 -906
-330 -1014 -12 -26 -25 -45 -29 -42 -8 5 -20 456 -42 1621 -6 270 -14 555 -20
635 -45 633 -126 1010 -296 1369 -30 63 -54 118 -54 123 0 12 183 146 292 214
191 118 372 188 741 285 106 28 198 52 205 54 6 3 12 15 12 27 -1 27 -36 187
-43 195 -8 7 -255 -54 -417 -104 -317 -98 -635 -250 -847 -405 -29 -21 -58
-38 -66 -38 -8 0 -43 44 -79 98 -123 183 -243 327 -428 513 -255 256 -449 399
-745 549 -296 151 -604 244 -945 284 -162 20 -422 27 -577 16z m437 -240 c560
-51 1021 -248 1459 -624 173 -150 299 -324 404 -561 52 -118 127 -330 127
-359 0 -10 -35 -59 -78 -110 -232 -269 -425 -586 -587 -961 -135 -312 -332
-873 -515 -1465 -124 -399 -399 -1249 -467 -1439 -179 -505 -391 -956 -571
-1216 -143 -206 -369 -444 -552 -581 -481 -360 -1087 -533 -1785 -511 -680 22
-1259 212 -1815 595 -162 111 -279 210 -441 371 -174 175 -283 307 -404 491
-312 476 -469 904 -547 1490 -20 148 -16 692 5 855 96 717 365 1366 784 1890
117 147 359 394 510 520 472 395 1014 649 1587 745 157 26 414 46 426 34 6 -6
-20 -61 -72 -149 -102 -177 -257 -494 -296 -606 -39 -112 -78 -287 -93 -419
-17 -157 -15 -462 5 -605 91 -644 420 -1178 916 -1486 256 -159 519 -249 809
-279 341 -34 641 19 980 174 67 31 124 56 127 56 21 0 -55 -191 -151 -379
-385 -758 -1137 -1314 -1890 -1401 -328 -37 -687 24 -963 164 -166 84 -396
275 -532 441 -270 330 -393 717 -377 1185 7 187 19 274 63 426 27 96 27 96 7
122 -15 20 -37 30 -99 44 -43 9 -82 18 -85 18 -9 0 -64 -205 -90 -335 -30
-157 -37 -444 -15 -622 78 -607 403 -1121 894 -1410 242 -142 474 -223 772
-270 161 -25 566 -25 730 0 740 114 1295 495 1700 1167 170 281 309 643 383
994 16 74 32 126 44 139 234 262 401 493 501 693 80 160 262 653 262 709 0 39
-31 62 -113 85 -44 12 -80 20 -82 18 -2 -2 -31 -88 -65 -193 -80 -241 -160
-435 -239 -572 -72 -126 -207 -313 -225 -313 -10 0 -15 45 -19 198 -6 213 -20
327 -67 522 -151 626 -504 1206 -940 1542 -331 255 -702 418 -1185 521 -38 8
-61 18 -62 27 -6 36 360 290 567 392 163 81 285 126 451 167 292 70 623 96
909 71z m-2002 -855 c491 -104 920 -296 1236 -554 101 -83 255 -239 331 -336
242 -309 437 -810 496 -1280 22 -168 17 -458 -10 -609 -12 -70 -25 -135 -28
-142 -3 -8 -65 -50 -138 -94 -343 -204 -525 -264 -835 -277 -310 -12 -572 47
-822 186 -264 146 -537 420 -696 698 -304 531 -321 1223 -45 1838 102 228 336
595 379 595 7 0 67 -11 132 -25z"/>
</g>
</svg>
